<svg width="1448" height="104" viewBox="0 0 1448 104" fill="none" xmlns="http://www.w3.org/2000/svg">
<g filter="url(#filter0_d_567_3148)">
<rect width="1440" height="96" transform="translate(4)" fill="white"/>
<path d="M353.761 55V40.4545H355.523V47.6705H355.693L362.227 40.4545H364.528L358.42 47.017L364.528 55H362.398L357.341 48.2386L355.523 50.2841V55H353.761ZM369.791 55.2557C369.1 55.2557 368.473 55.1255 367.909 54.8651C367.346 54.5999 366.898 54.2188 366.567 53.7216C366.235 53.2197 366.07 52.6136 366.07 51.9034C366.07 51.2784 366.193 50.7718 366.439 50.3835C366.685 49.9905 367.014 49.6828 367.426 49.4602C367.838 49.2377 368.293 49.072 368.79 48.9631C369.292 48.8494 369.796 48.7595 370.303 48.6932C370.965 48.608 371.503 48.544 371.915 48.5014C372.331 48.4541 372.634 48.3759 372.824 48.267C373.018 48.1581 373.115 47.9687 373.115 47.6989V47.642C373.115 46.9413 372.923 46.3968 372.54 46.0085C372.161 45.6203 371.586 45.4261 370.814 45.4261C370.014 45.4261 369.386 45.6013 368.932 45.9517C368.477 46.3021 368.158 46.6761 367.973 47.0739L366.382 46.5057C366.666 45.8428 367.045 45.3267 367.518 44.9574C367.997 44.5833 368.518 44.3229 369.081 44.1761C369.649 44.0246 370.208 43.9489 370.757 43.9489C371.107 43.9489 371.51 43.9915 371.964 44.0767C372.424 44.1572 372.866 44.3253 373.293 44.581C373.723 44.8366 374.081 45.2225 374.365 45.7386C374.649 46.2547 374.791 46.946 374.791 47.8125V55H373.115V53.5227H373.03C372.916 53.7595 372.727 54.0128 372.462 54.2827C372.196 54.5526 371.844 54.7822 371.403 54.9716C370.963 55.161 370.426 55.2557 369.791 55.2557ZM370.047 53.75C370.71 53.75 371.268 53.6198 371.723 53.3594C372.182 53.099 372.528 52.7628 372.76 52.3509C372.997 51.9389 373.115 51.5057 373.115 51.0511V49.517C373.044 49.6023 372.888 49.6804 372.646 49.7514C372.41 49.8177 372.135 49.8769 371.822 49.929C371.515 49.9763 371.214 50.0189 370.92 50.0568C370.632 50.09 370.397 50.1184 370.217 50.142C369.782 50.1989 369.375 50.2912 368.996 50.419C368.622 50.5421 368.319 50.7292 368.087 50.9801C367.859 51.2263 367.746 51.5625 367.746 51.9886C367.746 52.571 367.961 53.0114 368.392 53.3097C368.828 53.6032 369.379 53.75 370.047 53.75ZM379.527 48.4375V55H377.85V44.0909H379.47V45.7955H379.612C379.868 45.2415 380.256 44.7964 380.777 44.4602C381.297 44.1193 381.97 43.9489 382.794 43.9489C383.532 43.9489 384.179 44.1004 384.733 44.4034C385.287 44.7017 385.717 45.1562 386.025 45.767C386.333 46.3731 386.487 47.1402 386.487 48.0682V55H384.811V48.1818C384.811 47.3248 384.588 46.6572 384.143 46.179C383.698 45.696 383.087 45.4545 382.311 45.4545C381.776 45.4545 381.297 45.5705 380.876 45.8026C380.459 46.0346 380.13 46.3731 379.889 46.8182C379.647 47.2633 379.527 47.803 379.527 48.4375ZM389.777 55V40.4545H391.453V45.8239H391.595C391.718 45.6345 391.889 45.393 392.107 45.0994C392.329 44.8011 392.646 44.536 393.058 44.304C393.475 44.0672 394.038 43.9489 394.749 43.9489C395.667 43.9489 396.477 44.1785 397.178 44.6378C397.878 45.0971 398.425 45.7481 398.818 46.5909C399.211 47.4337 399.408 48.428 399.408 49.5739C399.408 50.7292 399.211 51.7306 398.818 52.5781C398.425 53.4209 397.881 54.0743 397.185 54.5384C396.489 54.9976 395.686 55.2273 394.777 55.2273C394.076 55.2273 393.515 55.1113 393.094 54.8793C392.672 54.6425 392.348 54.375 392.121 54.0767C391.893 53.7737 391.718 53.5227 391.595 53.3239H391.396V55H389.777ZM391.425 49.5455C391.425 50.3693 391.545 51.0961 391.787 51.7259C392.028 52.3509 392.381 52.8409 392.845 53.196C393.309 53.5464 393.877 53.7216 394.55 53.7216C395.25 53.7216 395.835 53.5369 396.304 53.1676C396.777 52.7936 397.133 52.2917 397.369 51.6619C397.611 51.0275 397.732 50.322 397.732 49.5455C397.732 48.7784 397.613 48.0871 397.376 47.4716C397.144 46.8513 396.792 46.3613 396.318 46.0014C395.849 45.6368 395.26 45.4545 394.55 45.4545C393.868 45.4545 393.295 45.6274 392.831 45.973C392.367 46.3139 392.017 46.7921 391.78 47.4077C391.543 48.0185 391.425 48.7311 391.425 49.5455ZM405.182 55.2557C404.491 55.2557 403.863 55.1255 403.3 54.8651C402.736 54.5999 402.289 54.2188 401.957 53.7216C401.626 53.2197 401.46 52.6136 401.46 51.9034C401.46 51.2784 401.583 50.7718 401.83 50.3835C402.076 49.9905 402.405 49.6828 402.817 49.4602C403.229 49.2377 403.683 49.072 404.18 48.9631C404.682 48.8494 405.187 48.7595 405.693 48.6932C406.356 48.608 406.893 48.544 407.305 48.5014C407.722 48.4541 408.025 48.3759 408.214 48.267C408.409 48.1581 408.506 47.9687 408.506 47.6989V47.642C408.506 46.9413 408.314 46.3968 407.93 46.0085C407.552 45.6203 406.976 45.4261 406.205 45.4261C405.404 45.4261 404.777 45.6013 404.322 45.9517C403.868 46.3021 403.548 46.6761 403.364 47.0739L401.773 46.5057C402.057 45.8428 402.436 45.3267 402.909 44.9574C403.387 44.5833 403.908 44.3229 404.472 44.1761C405.04 44.0246 405.598 43.9489 406.148 43.9489C406.498 43.9489 406.901 43.9915 407.355 44.0767C407.814 44.1572 408.257 44.3253 408.683 44.581C409.114 44.8366 409.472 45.2225 409.756 45.7386C410.04 46.2547 410.182 46.946 410.182 47.8125V55H408.506V53.5227H408.42C408.307 53.7595 408.117 54.0128 407.852 54.2827C407.587 54.5526 407.234 54.7822 406.794 54.9716C406.354 55.161 405.816 55.2557 405.182 55.2557ZM405.438 53.75C406.1 53.75 406.659 53.6198 407.114 53.3594C407.573 53.099 407.919 52.7628 408.151 52.3509C408.387 51.9389 408.506 51.5057 408.506 51.0511V49.517C408.435 49.6023 408.278 49.6804 408.037 49.7514C407.8 49.8177 407.526 49.8769 407.213 49.929C406.905 49.9763 406.605 50.0189 406.311 50.0568C406.022 50.09 405.788 50.1184 405.608 50.142C405.172 50.1989 404.765 50.2912 404.386 50.419C404.012 50.5421 403.709 50.7292 403.477 50.9801C403.25 51.2263 403.136 51.5625 403.136 51.9886C403.136 52.571 403.352 53.0114 403.783 53.3097C404.218 53.6032 404.77 53.75 405.438 53.75ZM414.917 48.4375V55H413.241V44.0909H414.86V45.7955H415.002C415.258 45.2415 415.646 44.7964 416.167 44.4602C416.688 44.1193 417.36 43.9489 418.184 43.9489C418.923 43.9489 419.569 44.1004 420.123 44.4034C420.677 44.7017 421.108 45.1562 421.416 45.767C421.724 46.3731 421.877 47.1402 421.877 48.0682V55H420.201V48.1818C420.201 47.3248 419.979 46.6572 419.534 46.179C419.089 45.696 418.478 45.4545 417.701 45.4545C417.166 45.4545 416.688 45.5705 416.267 45.8026C415.85 46.0346 415.521 46.3731 415.279 46.8182C415.038 47.2633 414.917 47.803 414.917 48.4375ZM430.793 55V40.4545H435.707C436.848 40.4545 437.781 40.6605 438.506 41.0724C439.235 41.4796 439.775 42.0312 440.125 42.7273C440.475 43.4233 440.651 44.1998 440.651 45.0568C440.651 45.9138 440.475 46.6927 440.125 47.3935C439.779 48.0942 439.244 48.6529 438.52 49.0696C437.795 49.4815 436.867 49.6875 435.736 49.6875H432.213V48.125H435.679C436.46 48.125 437.088 47.9901 437.561 47.7202C438.035 47.4503 438.378 47.0857 438.591 46.6264C438.809 46.1624 438.918 45.6392 438.918 45.0568C438.918 44.4744 438.809 43.9536 438.591 43.4943C438.378 43.035 438.032 42.6752 437.554 42.4148C437.076 42.1496 436.441 42.017 435.651 42.017H432.554V55H430.793ZM443.261 55V44.0909H444.88V45.7386H444.994C445.192 45.1989 445.552 44.7609 446.073 44.4247C446.594 44.0885 447.181 43.9205 447.835 43.9205C447.958 43.9205 448.112 43.9228 448.296 43.9276C448.481 43.9323 448.621 43.9394 448.715 43.9489V45.6534C448.658 45.6392 448.528 45.6179 448.325 45.5895C448.126 45.5563 447.915 45.5398 447.692 45.5398C447.162 45.5398 446.689 45.651 446.272 45.8736C445.86 46.0914 445.533 46.3944 445.292 46.7827C445.055 47.1662 444.937 47.6042 444.937 48.0966V55H443.261ZM454.802 55.2273C453.817 55.2273 452.953 54.9929 452.21 54.5241C451.471 54.0554 450.893 53.3996 450.477 52.5568C450.065 51.714 449.859 50.7292 449.859 49.6023C449.859 48.4659 450.065 47.474 450.477 46.6264C450.893 45.7789 451.471 45.1207 452.21 44.652C452.953 44.1832 453.817 43.9489 454.802 43.9489C455.787 43.9489 456.648 44.1832 457.387 44.652C458.13 45.1207 458.708 45.7789 459.12 46.6264C459.537 47.474 459.745 48.4659 459.745 49.6023C459.745 50.7292 459.537 51.714 459.12 52.5568C458.708 53.3996 458.13 54.0554 457.387 54.5241C456.648 54.9929 455.787 55.2273 454.802 55.2273ZM454.802 53.7216C455.55 53.7216 456.165 53.5298 456.648 53.1463C457.131 52.7628 457.489 52.2585 457.721 51.6335C457.953 51.0085 458.069 50.3314 458.069 49.6023C458.069 48.8731 457.953 48.1937 457.721 47.5639C457.489 46.9342 457.131 46.4252 456.648 46.0369C456.165 45.6487 455.55 45.4545 454.802 45.4545C454.054 45.4545 453.438 45.6487 452.955 46.0369C452.472 46.4252 452.115 46.9342 451.883 47.5639C451.651 48.1937 451.535 48.8731 451.535 49.6023C451.535 50.3314 451.651 51.0085 451.883 51.6335C452.115 52.2585 452.472 52.7628 452.955 53.1463C453.438 53.5298 454.054 53.7216 454.802 53.7216ZM462.304 44.0909H463.98V55.7955C463.98 56.4678 463.864 57.0502 463.632 57.5426C463.404 58.035 463.059 58.4162 462.595 58.6861C462.136 58.956 461.556 59.0909 460.855 59.0909C460.798 59.0909 460.741 59.0909 460.684 59.0909C460.627 59.0909 460.571 59.0909 460.514 59.0909V57.5284C460.571 57.5284 460.623 57.5284 460.67 57.5284C460.717 57.5284 460.77 57.5284 460.826 57.5284C461.338 57.5284 461.712 57.3769 461.949 57.0739C462.185 56.7756 462.304 56.3494 462.304 55.7955V44.0909ZM463.127 42.2727C462.801 42.2727 462.519 42.1615 462.282 41.9389C462.05 41.7164 461.934 41.4489 461.934 41.1364C461.934 40.8239 462.05 40.5563 462.282 40.3338C462.519 40.1113 462.801 40 463.127 40C463.454 40 463.734 40.1113 463.966 40.3338C464.202 40.5563 464.321 40.8239 464.321 41.1364C464.321 41.4489 464.202 41.7164 463.966 41.9389C463.734 42.1615 463.454 42.2727 463.127 42.2727ZM471.624 55.2273C470.572 55.2273 469.666 54.9953 468.903 54.5312C468.146 54.0625 467.561 53.4091 467.149 52.571C466.742 51.7282 466.538 50.7481 466.538 49.6307C466.538 48.5133 466.742 47.5284 467.149 46.6761C467.561 45.8191 468.134 45.1515 468.868 44.6733C469.607 44.1903 470.468 43.9489 471.453 43.9489C472.021 43.9489 472.582 44.0436 473.136 44.233C473.69 44.4223 474.195 44.7301 474.649 45.1562C475.104 45.5777 475.466 46.1364 475.736 46.8324C476.006 47.5284 476.141 48.3854 476.141 49.4034V50.1136H467.732V48.6648H474.436C474.436 48.0492 474.313 47.5 474.067 47.017C473.825 46.5341 473.48 46.1529 473.03 45.8736C472.585 45.5942 472.059 45.4545 471.453 45.4545C470.786 45.4545 470.208 45.6203 469.72 45.9517C469.237 46.2784 468.866 46.7045 468.605 47.2301C468.345 47.7557 468.214 48.3191 468.214 48.9205V49.8864C468.214 50.7102 468.357 51.4086 468.641 51.9815C468.929 52.5497 469.33 52.983 469.841 53.2812C470.352 53.5748 470.946 53.7216 471.624 53.7216C472.064 53.7216 472.462 53.66 472.817 53.5369C473.177 53.4091 473.487 53.2197 473.747 52.9688C474.008 52.7131 474.209 52.3958 474.351 52.017L475.97 52.4716C475.8 53.0208 475.513 53.5038 475.111 53.9205C474.708 54.3324 474.211 54.6544 473.619 54.8864C473.027 55.1136 472.362 55.2273 471.624 55.2273ZM483.122 55.2273C482.099 55.2273 481.219 54.9858 480.48 54.5028C479.741 54.0199 479.173 53.3546 478.776 52.5071C478.378 51.6596 478.179 50.6913 478.179 49.6023C478.179 48.4943 478.383 47.5166 478.79 46.669C479.202 45.8168 479.775 45.1515 480.509 44.6733C481.247 44.1903 482.109 43.9489 483.094 43.9489C483.861 43.9489 484.552 44.0909 485.168 44.375C485.783 44.6591 486.287 45.0568 486.68 45.5682C487.073 46.0795 487.317 46.6761 487.412 47.358H485.736C485.608 46.8608 485.324 46.4205 484.884 46.0369C484.448 45.6487 483.861 45.4545 483.122 45.4545C482.469 45.4545 481.896 45.625 481.403 45.9659C480.916 46.3021 480.535 46.7779 480.26 47.3935C479.99 48.0043 479.855 48.7216 479.855 49.5455C479.855 50.3883 479.988 51.1222 480.253 51.7472C480.523 52.3722 480.902 52.8575 481.389 53.2031C481.882 53.5488 482.459 53.7216 483.122 53.7216C483.558 53.7216 483.953 53.6458 484.308 53.4943C484.663 53.3428 484.964 53.125 485.21 52.8409C485.456 52.5568 485.632 52.2159 485.736 51.8182H487.412C487.317 52.4621 487.083 53.0421 486.709 53.5582C486.339 54.0696 485.849 54.4768 485.239 54.7798C484.633 55.0781 483.927 55.2273 483.122 55.2273ZM494.607 44.0909V45.5114H488.953V44.0909H494.607ZM490.601 41.4773H492.277V51.875C492.277 52.3485 492.346 52.7036 492.483 52.9403C492.625 53.1723 492.805 53.3286 493.023 53.4091C493.245 53.4848 493.48 53.5227 493.726 53.5227C493.911 53.5227 494.062 53.5133 494.18 53.4943C494.299 53.4706 494.393 53.4517 494.464 53.4375L494.805 54.9432C494.692 54.9858 494.533 55.0284 494.33 55.071C494.126 55.1184 493.868 55.142 493.555 55.142C493.082 55.142 492.618 55.0402 492.163 54.8366C491.714 54.633 491.339 54.3229 491.041 53.9062C490.748 53.4896 490.601 52.964 490.601 52.3295V41.4773ZM502.98 40.4545H505.082L510.026 52.5284H510.196L515.139 40.4545H517.241V55H515.594V43.9489H515.452L510.906 55H509.315L504.77 43.9489H504.628V55H502.98V40.4545ZM523.756 55.2557C523.065 55.2557 522.437 55.1255 521.874 54.8651C521.31 54.5999 520.863 54.2188 520.532 53.7216C520.2 53.2197 520.034 52.6136 520.034 51.9034C520.034 51.2784 520.158 50.7718 520.404 50.3835C520.65 49.9905 520.979 49.6828 521.391 49.4602C521.803 49.2377 522.257 49.072 522.755 48.9631C523.257 48.8494 523.761 48.7595 524.267 48.6932C524.93 48.608 525.468 48.544 525.88 48.5014C526.296 48.4541 526.599 48.3759 526.789 48.267C526.983 48.1581 527.08 47.9687 527.08 47.6989V47.642C527.08 46.9413 526.888 46.3968 526.505 46.0085C526.126 45.6203 525.551 45.4261 524.779 45.4261C523.979 45.4261 523.351 45.6013 522.897 45.9517C522.442 46.3021 522.123 46.6761 521.938 47.0739L520.347 46.5057C520.631 45.8428 521.01 45.3267 521.483 44.9574C521.962 44.5833 522.482 44.3229 523.046 44.1761C523.614 44.0246 524.173 43.9489 524.722 43.9489C525.072 43.9489 525.475 43.9915 525.929 44.0767C526.389 44.1572 526.831 44.3253 527.257 44.581C527.688 44.8366 528.046 45.2225 528.33 45.7386C528.614 46.2547 528.756 46.946 528.756 47.8125V55H527.08V53.5227H526.995C526.881 53.7595 526.692 54.0128 526.426 54.2827C526.161 54.5526 525.809 54.7822 525.368 54.9716C524.928 55.161 524.391 55.2557 523.756 55.2557ZM524.012 53.75C524.675 53.75 525.233 53.6198 525.688 53.3594C526.147 53.099 526.493 52.7628 526.725 52.3509C526.962 51.9389 527.08 51.5057 527.08 51.0511V49.517C527.009 49.6023 526.853 49.6804 526.611 49.7514C526.374 49.8177 526.1 49.8769 525.787 49.929C525.48 49.9763 525.179 50.0189 524.885 50.0568C524.596 50.09 524.362 50.1184 524.182 50.142C523.747 50.1989 523.339 50.2912 522.961 50.419C522.587 50.5421 522.283 50.7292 522.051 50.9801C521.824 51.2263 521.711 51.5625 521.711 51.9886C521.711 52.571 521.926 53.0114 522.357 53.3097C522.792 53.6032 523.344 53.75 524.012 53.75ZM533.491 48.4375V55H531.815V44.0909H533.435V45.7955H533.577C533.832 45.2415 534.221 44.7964 534.741 44.4602C535.262 44.1193 535.935 43.9489 536.759 43.9489C537.497 43.9489 538.143 44.1004 538.697 44.4034C539.251 44.7017 539.682 45.1562 539.99 45.767C540.298 46.3731 540.452 47.1402 540.452 48.0682V55H538.776V48.1818C538.776 47.3248 538.553 46.6572 538.108 46.179C537.663 45.696 537.052 45.4545 536.276 45.4545C535.741 45.4545 535.262 45.5705 534.841 45.8026C534.424 46.0346 534.095 46.3731 533.854 46.8182C533.612 47.2633 533.491 47.803 533.491 48.4375ZM546.725 55.2557C546.033 55.2557 545.406 55.1255 544.843 54.8651C544.279 54.5999 543.832 54.2188 543.5 53.7216C543.169 53.2197 543.003 52.6136 543.003 51.9034C543.003 51.2784 543.126 50.7718 543.373 50.3835C543.619 49.9905 543.948 49.6828 544.36 49.4602C544.772 49.2377 545.226 49.072 545.723 48.9631C546.225 48.8494 546.73 48.7595 547.236 48.6932C547.899 48.608 548.436 48.544 548.848 48.5014C549.265 48.4541 549.568 48.3759 549.757 48.267C549.952 48.1581 550.049 47.9687 550.049 47.6989V47.642C550.049 46.9413 549.857 46.3968 549.473 46.0085C549.095 45.6203 548.519 45.4261 547.748 45.4261C546.947 45.4261 546.32 45.6013 545.865 45.9517C545.411 46.3021 545.091 46.6761 544.907 47.0739L543.316 46.5057C543.6 45.8428 543.979 45.3267 544.452 44.9574C544.93 44.5833 545.451 44.3229 546.015 44.1761C546.583 44.0246 547.141 43.9489 547.691 43.9489C548.041 43.9489 548.444 43.9915 548.898 44.0767C549.357 44.1572 549.8 44.3253 550.226 44.581C550.657 44.8366 551.015 45.2225 551.299 45.7386C551.583 46.2547 551.725 46.946 551.725 47.8125V55H550.049V53.5227H549.963C549.85 53.7595 549.66 54.0128 549.395 54.2827C549.13 54.5526 548.777 54.7822 548.337 54.9716C547.897 55.161 547.359 55.2557 546.725 55.2557ZM546.98 53.75C547.643 53.75 548.202 53.6198 548.657 53.3594C549.116 53.099 549.462 52.7628 549.694 52.3509C549.93 51.9389 550.049 51.5057 550.049 51.0511V49.517C549.978 49.6023 549.821 49.6804 549.58 49.7514C549.343 49.8177 549.069 49.8769 548.756 49.929C548.448 49.9763 548.148 50.0189 547.854 50.0568C547.565 50.09 547.331 50.1184 547.151 50.142C546.715 50.1989 546.308 50.2912 545.929 50.419C545.555 50.5421 545.252 50.7292 545.02 50.9801C544.793 51.2263 544.679 51.5625 544.679 51.9886C544.679 52.571 544.895 53.0114 545.326 53.3097C545.761 53.6032 546.313 53.75 546.98 53.75ZM559.188 59.3182C558.378 59.3182 557.682 59.214 557.099 59.0057C556.517 58.8021 556.032 58.5322 555.643 58.196C555.26 57.8646 554.955 57.5095 554.727 57.1307L556.062 56.1932C556.214 56.392 556.406 56.6193 556.638 56.875C556.87 57.1354 557.187 57.3603 557.589 57.5497C557.997 57.7438 558.529 57.8409 559.188 57.8409C560.068 57.8409 560.795 57.6278 561.368 57.2017C561.941 56.7756 562.227 56.108 562.227 55.1989V52.983H562.085C561.962 53.1818 561.787 53.428 561.56 53.7216C561.337 54.0104 561.015 54.2685 560.594 54.4957C560.177 54.7183 559.614 54.8295 558.903 54.8295C558.023 54.8295 557.232 54.6212 556.531 54.2045C555.835 53.7879 555.284 53.1818 554.876 52.3864C554.474 51.5909 554.273 50.625 554.273 49.4886C554.273 48.3712 554.469 47.3982 554.862 46.5696C555.255 45.7363 555.802 45.0923 556.503 44.6378C557.204 44.1785 558.013 43.9489 558.932 43.9489C559.642 43.9489 560.205 44.0672 560.622 44.304C561.044 44.536 561.366 44.8011 561.588 45.0994C561.815 45.393 561.991 45.6345 562.114 45.8239H562.284V44.0909H563.903V55.3125C563.903 56.25 563.69 57.0123 563.264 57.5994C562.843 58.1913 562.275 58.6245 561.56 58.8991C560.849 59.1785 560.059 59.3182 559.188 59.3182ZM559.131 53.3239C559.803 53.3239 560.371 53.17 560.835 52.8622C561.299 52.5545 561.652 52.1117 561.893 51.5341C562.135 50.9564 562.256 50.2652 562.256 49.4602C562.256 48.6742 562.137 47.9806 561.901 47.3793C561.664 46.7779 561.313 46.3068 560.849 45.9659C560.385 45.625 559.813 45.4545 559.131 45.4545C558.42 45.4545 557.829 45.6345 557.355 45.9943C556.886 46.3542 556.534 46.8371 556.297 47.4432C556.065 48.0492 555.949 48.7216 555.949 49.4602C555.949 50.2178 556.067 50.8878 556.304 51.4702C556.545 52.0478 556.901 52.5024 557.369 52.8338C557.843 53.1605 558.43 53.3239 559.131 53.3239ZM571.545 55.2273C570.494 55.2273 569.588 54.9953 568.825 54.5312C568.068 54.0625 567.483 53.4091 567.071 52.571C566.664 51.7282 566.46 50.7481 566.46 49.6307C566.46 48.5133 566.664 47.5284 567.071 46.6761C567.483 45.8191 568.056 45.1515 568.79 44.6733C569.528 44.1903 570.39 43.9489 571.375 43.9489C571.943 43.9489 572.504 44.0436 573.058 44.233C573.612 44.4223 574.116 44.7301 574.571 45.1562C575.026 45.5777 575.388 46.1364 575.658 46.8324C575.928 47.5284 576.062 48.3854 576.062 49.4034V50.1136H567.653V48.6648H574.358C574.358 48.0492 574.235 47.5 573.989 47.017C573.747 46.5341 573.402 46.1529 572.952 45.8736C572.507 45.5942 571.981 45.4545 571.375 45.4545C570.707 45.4545 570.13 45.6203 569.642 45.9517C569.159 46.2784 568.787 46.7045 568.527 47.2301C568.267 47.7557 568.136 48.3191 568.136 48.9205V49.8864C568.136 50.7102 568.278 51.4086 568.562 51.9815C568.851 52.5497 569.251 52.983 569.763 53.2812C570.274 53.5748 570.868 53.7216 571.545 53.7216C571.986 53.7216 572.384 53.66 572.739 53.5369C573.098 53.4091 573.409 53.2197 573.669 52.9688C573.929 52.7131 574.131 52.3958 574.273 52.017L575.892 52.4716C575.722 53.0208 575.435 53.5038 575.033 53.9205C574.63 54.3324 574.133 54.6544 573.541 54.8864C572.949 55.1136 572.284 55.2273 571.545 55.2273ZM578.612 55V44.0909H580.232V45.7955H580.374C580.601 45.2131 580.968 44.7609 581.474 44.4389C581.981 44.1122 582.589 43.9489 583.3 43.9489C584.019 43.9489 584.618 44.1122 585.097 44.4389C585.58 44.7609 585.956 45.2131 586.226 45.7955H586.339C586.619 45.232 587.038 44.7846 587.597 44.4531C588.155 44.117 588.825 43.9489 589.607 43.9489C590.582 43.9489 591.38 44.2543 592 44.8651C592.62 45.4711 592.93 46.4157 592.93 47.6989V55H591.254V47.6989C591.254 46.8939 591.034 46.3187 590.594 45.973C590.153 45.6274 589.635 45.4545 589.038 45.4545C588.271 45.4545 587.677 45.6866 587.256 46.1506C586.834 46.6098 586.624 47.1922 586.624 47.8977V55H584.919V47.5284C584.919 46.9081 584.718 46.4086 584.315 46.0298C583.913 45.6463 583.394 45.4545 582.76 45.4545C582.324 45.4545 581.917 45.5705 581.538 45.8026C581.164 46.0346 580.861 46.3565 580.629 46.7685C580.402 47.1757 580.288 47.6468 580.288 48.1818V55H578.612ZM600.569 55.2273C599.518 55.2273 598.611 54.9953 597.849 54.5312C597.091 54.0625 596.506 53.4091 596.094 52.571C595.687 51.7282 595.484 50.7481 595.484 49.6307C595.484 48.5133 595.687 47.5284 596.094 46.6761C596.506 45.8191 597.079 45.1515 597.813 44.6733C598.552 44.1903 599.414 43.9489 600.398 43.9489C600.967 43.9489 601.528 44.0436 602.082 44.233C602.636 44.4223 603.14 44.7301 603.594 45.1562C604.049 45.5777 604.411 46.1364 604.681 46.8324C604.951 47.5284 605.086 48.3854 605.086 49.4034V50.1136H596.677V48.6648H603.381C603.381 48.0492 603.258 47.5 603.012 47.017C602.771 46.5341 602.425 46.1529 601.975 45.8736C601.53 45.5942 601.004 45.4545 600.398 45.4545C599.731 45.4545 599.153 45.6203 598.665 45.9517C598.183 46.2784 597.811 46.7045 597.55 47.2301C597.29 47.7557 597.16 48.3191 597.16 48.9205V49.8864C597.16 50.7102 597.302 51.4086 597.586 51.9815C597.875 52.5497 598.275 52.983 598.786 53.2812C599.298 53.5748 599.892 53.7216 600.569 53.7216C601.009 53.7216 601.407 53.66 601.762 53.5369C602.122 53.4091 602.432 53.2197 602.692 52.9688C602.953 52.7131 603.154 52.3958 603.296 52.017L604.915 52.4716C604.745 53.0208 604.459 53.5038 604.056 53.9205C603.654 54.3324 603.156 54.6544 602.565 54.8864C601.973 55.1136 601.308 55.2273 600.569 55.2273ZM609.312 48.4375V55H607.636V44.0909H609.255V45.7955H609.397C609.653 45.2415 610.041 44.7964 610.562 44.4602C611.083 44.1193 611.755 43.9489 612.579 43.9489C613.317 43.9489 613.964 44.1004 614.518 44.4034C615.072 44.7017 615.503 45.1562 615.81 45.767C616.118 46.3731 616.272 47.1402 616.272 48.0682V55H614.596V48.1818C614.596 47.3248 614.373 46.6572 613.928 46.179C613.483 45.696 612.872 45.4545 612.096 45.4545C611.561 45.4545 611.083 45.5705 610.661 45.8026C610.245 46.0346 609.915 46.3731 609.674 46.8182C609.433 47.2633 609.312 47.803 609.312 48.4375ZM624.079 44.0909V45.5114H618.426V44.0909H624.079ZM620.074 41.4773H621.75V51.875C621.75 52.3485 621.818 52.7036 621.956 52.9403C622.098 53.1723 622.278 53.3286 622.495 53.4091C622.718 53.4848 622.952 53.5227 623.199 53.5227C623.383 53.5227 623.535 53.5133 623.653 53.4943C623.771 53.4706 623.866 53.4517 623.937 53.4375L624.278 54.9432C624.164 54.9858 624.006 55.0284 623.802 55.071C623.599 55.1184 623.341 55.142 623.028 55.142C622.555 55.142 622.091 55.0402 621.636 54.8366C621.186 54.633 620.812 54.3229 620.514 53.9062C620.22 53.4896 620.074 52.964 620.074 52.3295V41.4773ZM631.657 42.017V40.4545H642.566V42.017H637.993V55H636.231V42.017H631.657ZM647.907 55.2273C646.922 55.2273 646.058 54.9929 645.315 54.5241C644.576 54.0554 643.999 53.3996 643.582 52.5568C643.17 51.714 642.964 50.7292 642.964 49.6023C642.964 48.4659 643.17 47.474 643.582 46.6264C643.999 45.7789 644.576 45.1207 645.315 44.652C646.058 44.1832 646.922 43.9489 647.907 43.9489C648.892 43.9489 649.754 44.1832 650.493 44.652C651.236 45.1207 651.814 45.7789 652.225 46.6264C652.642 47.474 652.85 48.4659 652.85 49.6023C652.85 50.7292 652.642 51.714 652.225 52.5568C651.814 53.3996 651.236 54.0554 650.493 54.5241C649.754 54.9929 648.892 55.2273 647.907 55.2273ZM647.907 53.7216C648.655 53.7216 649.271 53.5298 649.754 53.1463C650.237 52.7628 650.594 52.2585 650.826 51.6335C651.058 51.0085 651.174 50.3314 651.174 49.6023C651.174 48.8731 651.058 48.1937 650.826 47.5639C650.594 46.9342 650.237 46.4252 649.754 46.0369C649.271 45.6487 648.655 45.4545 647.907 45.4545C647.159 45.4545 646.544 45.6487 646.061 46.0369C645.578 46.4252 645.22 46.9342 644.988 47.5639C644.756 48.1937 644.64 48.8731 644.64 49.6023C644.64 50.3314 644.756 51.0085 644.988 51.6335C645.22 52.2585 645.578 52.7628 646.061 53.1463C646.544 53.5298 647.159 53.7216 647.907 53.7216ZM659.841 55.2273C658.856 55.2273 657.992 54.9929 657.249 54.5241C656.51 54.0554 655.932 53.3996 655.516 52.5568C655.104 51.714 654.898 50.7292 654.898 49.6023C654.898 48.4659 655.104 47.474 655.516 46.6264C655.932 45.7789 656.51 45.1207 657.249 44.652C657.992 44.1832 658.856 43.9489 659.841 43.9489C660.826 43.9489 661.688 44.1832 662.426 44.652C663.17 45.1207 663.747 45.7789 664.159 46.6264C664.576 47.474 664.784 48.4659 664.784 49.6023C664.784 50.7292 664.576 51.714 664.159 52.5568C663.747 53.3996 663.17 54.0554 662.426 54.5241C661.688 54.9929 660.826 55.2273 659.841 55.2273ZM659.841 53.7216C660.589 53.7216 661.205 53.5298 661.688 53.1463C662.17 52.7628 662.528 52.2585 662.76 51.6335C662.992 51.0085 663.108 50.3314 663.108 49.6023C663.108 48.8731 662.992 48.1937 662.76 47.5639C662.528 46.9342 662.17 46.4252 661.688 46.0369C661.205 45.6487 660.589 45.4545 659.841 45.4545C659.093 45.4545 658.477 45.6487 657.994 46.0369C657.511 46.4252 657.154 46.9342 656.922 47.5639C656.69 48.1937 656.574 48.8731 656.574 49.6023C656.574 50.3314 656.69 51.0085 656.922 51.6335C657.154 52.2585 657.511 52.7628 657.994 53.1463C658.477 53.5298 659.093 53.7216 659.841 53.7216ZM669.019 40.4545V55H667.343V40.4545H669.019Z" fill="black"/>
<mask id="mask0_567_3148" style="mask-type:alpha" maskUnits="userSpaceOnUse" x="1300" y="32" width="32" height="32">
<rect x="1300" y="32" width="32" height="32" fill="#D9D9D9"/>
</mask>
<g mask="url(#mask0_567_3148)">
<path d="M1315.95 54C1316.3 54 1316.6 53.8792 1316.84 53.6375C1317.08 53.3958 1317.2 53.1 1317.2 52.75C1317.2 52.4 1317.08 52.1042 1316.84 51.8625C1316.6 51.6208 1316.3 51.5 1315.95 51.5C1315.6 51.5 1315.3 51.6208 1315.06 51.8625C1314.82 52.1042 1314.7 52.4 1314.7 52.75C1314.7 53.1 1314.82 53.3958 1315.06 53.6375C1315.3 53.8792 1315.6 54 1315.95 54ZM1316 58C1314.62 58 1313.32 57.7375 1312.1 57.2125C1310.88 56.6875 1309.83 55.975 1308.92 55.075C1308.02 54.175 1307.31 53.1167 1306.79 51.9C1306.26 50.6833 1306 49.3833 1306 48C1306 46.6167 1306.26 45.3167 1306.79 44.1C1307.31 42.8833 1308.02 41.825 1308.92 40.925C1309.83 40.025 1310.88 39.3125 1312.1 38.7875C1313.32 38.2625 1314.62 38 1316 38C1317.38 38 1318.68 38.2625 1319.9 38.7875C1321.12 39.3125 1322.18 40.025 1323.08 40.925C1323.98 41.825 1324.69 42.8833 1325.21 44.1C1325.74 45.3167 1326 46.6167 1326 48C1326 49.3833 1325.74 50.6833 1325.21 51.9C1324.69 53.1167 1323.98 54.175 1323.08 55.075C1322.18 55.975 1321.12 56.6875 1319.9 57.2125C1318.68 57.7375 1317.38 58 1316 58ZM1316 56C1318.23 56 1320.12 55.225 1321.68 53.675C1323.23 52.125 1324 50.2333 1324 48C1324 45.7667 1323.23 43.875 1321.68 42.325C1320.12 40.775 1318.23 40 1316 40C1313.77 40 1311.88 40.775 1310.33 42.325C1308.78 43.875 1308 45.7667 1308 48C1308 50.2333 1308.78 52.125 1310.33 53.675C1311.88 55.225 1313.77 56 1316 56ZM1316.1 43.7C1316.52 43.7 1316.88 43.8333 1317.19 44.1C1317.5 44.3667 1317.65 44.7 1317.65 45.1C1317.65 45.4667 1317.54 45.7917 1317.31 46.075C1317.09 46.3583 1316.83 46.625 1316.55 46.875C1316.17 47.2083 1315.83 47.575 1315.54 47.975C1315.25 48.375 1315.1 48.825 1315.1 49.325C1315.1 49.5583 1315.19 49.7542 1315.36 49.9125C1315.54 50.0708 1315.74 50.15 1315.98 50.15C1316.23 50.15 1316.44 50.0667 1316.61 49.9C1316.79 49.7333 1316.9 49.525 1316.95 49.275C1317.02 48.925 1317.17 48.6125 1317.4 48.3375C1317.63 48.0625 1317.88 47.8 1318.15 47.55C1318.53 47.1833 1318.86 46.7833 1319.14 46.35C1319.41 45.9167 1319.55 45.4333 1319.55 44.9C1319.55 44.05 1319.2 43.3542 1318.51 42.8125C1317.82 42.2708 1317.02 42 1316.1 42C1315.47 42 1314.86 42.1333 1314.29 42.4C1313.71 42.6667 1313.28 43.075 1312.97 43.625C1312.86 43.825 1312.82 44.0375 1312.86 44.2625C1312.9 44.4875 1313.02 44.6583 1313.2 44.775C1313.43 44.9083 1313.68 44.95 1313.93 44.9C1314.18 44.85 1314.38 44.7083 1314.55 44.475C1314.73 44.225 1314.96 44.0333 1315.24 43.9C1315.51 43.7667 1315.8 43.7 1316.1 43.7Z" fill="#A8A8A8"/>
</g>
<rect width="48" height="48" rx="24" transform="matrix(1 0 0 -1 1352 72)" fill="white"/>
<path d="M1369.99 45.0543C1369.94 44.5087 1369.7 44.0848 1369.29 43.7826C1368.88 43.4805 1368.33 43.3295 1367.62 43.3295C1367.14 43.3295 1366.74 43.3971 1366.41 43.5324C1366.08 43.6631 1365.83 43.8458 1365.65 44.0803C1365.48 44.3148 1365.4 44.5808 1365.4 44.8784C1365.39 45.1264 1365.44 45.3429 1365.55 45.5278C1365.67 45.7127 1365.83 45.8727 1366.03 46.008C1366.24 46.1388 1366.47 46.2538 1366.74 46.353C1367 46.4477 1367.29 46.5289 1367.59 46.5965L1368.83 46.8941C1369.44 47.0294 1369.99 47.2098 1370.5 47.4352C1371 47.6607 1371.44 47.938 1371.81 48.2672C1372.18 48.5964 1372.47 48.9842 1372.67 49.4306C1372.88 49.8771 1372.98 50.3889 1372.99 50.9661C1372.98 51.8139 1372.77 52.5489 1372.34 53.1712C1371.91 53.789 1371.3 54.2692 1370.5 54.6119C1369.7 54.9501 1368.74 55.1192 1367.61 55.1192C1366.49 55.1192 1365.52 54.9479 1364.69 54.6052C1363.86 54.2624 1363.22 53.7551 1362.75 53.0832C1362.29 52.4068 1362.05 51.5703 1362.03 50.5738H1364.86C1364.89 51.0382 1365.03 51.426 1365.26 51.7372C1365.5 52.0438 1365.82 52.2761 1366.22 52.4339C1366.62 52.5872 1367.07 52.6639 1367.57 52.6639C1368.07 52.6639 1368.5 52.5917 1368.87 52.4474C1369.24 52.3031 1369.52 52.1025 1369.73 51.8454C1369.93 51.5884 1370.03 51.293 1370.03 50.9593C1370.03 50.6482 1369.94 50.3866 1369.75 50.1747C1369.57 49.9627 1369.31 49.7824 1368.95 49.6336C1368.61 49.4848 1368.18 49.3495 1367.68 49.2277L1366.17 48.8489C1365 48.5648 1364.08 48.1207 1363.4 47.5164C1362.73 46.9122 1362.39 46.0982 1362.39 45.0746C1362.39 44.2358 1362.61 43.5031 1363.06 42.8763C1363.52 42.2495 1364.14 41.7602 1364.94 41.4085C1365.73 41.0567 1366.63 40.8809 1367.64 40.8809C1368.67 40.8809 1369.57 41.0567 1370.33 41.4085C1371.11 41.7602 1371.71 42.2495 1372.13 42.8763C1372.56 43.5031 1372.78 44.2291 1372.8 45.0543H1369.99Z" fill="#29ABE2"/>
<path d="M1374.96 41.0703H1378.57L1382.38 50.3776H1382.55L1386.36 41.0703H1389.97V54.9231H1387.13V45.9066H1387.02L1383.43 54.8554H1381.5L1377.91 45.8727H1377.8V54.9231H1374.96V41.0703Z" fill="#29ABE2"/>
<circle cx="1376" cy="48" r="26.5" stroke="#2A3647" stroke-width="3"/>
</g>
<defs>
<filter id="filter0_d_567_3148" x="0" y="0" width="1448" height="104" filterUnits="userSpaceOnUse" color-interpolation-filters="sRGB">
<feFlood flood-opacity="0" result="BackgroundImageFix"/>
<feColorMatrix in="SourceAlpha" type="matrix" values="0 0 0 0 0 0 0 0 0 0 0 0 0 0 0 0 0 0 127 0" result="hardAlpha"/>
<feOffset dy="4"/>
<feGaussianBlur stdDeviation="2"/>
<feComposite in2="hardAlpha" operator="out"/>
<feColorMatrix type="matrix" values="0 0 0 0 0 0 0 0 0 0 0 0 0 0 0 0 0 0 0.1 0"/>
<feBlend mode="normal" in2="BackgroundImageFix" result="effect1_dropShadow_567_3148"/>
<feBlend mode="normal" in="SourceGraphic" in2="effect1_dropShadow_567_3148" result="shape"/>
</filter>
</defs>
</svg>
